<svg xmlns="http://www.w3.org/2000/svg" xmlns:xlink="http://www.w3.org/1999/xlink" width="126" height="126" viewBox="0 0 126 126">
  <defs>
    <filter id="Ellipse_14">
      <feOffset input="SourceAlpha"/>
      <feGaussianBlur stdDeviation="18" result="blur"/>
      <feFlood flood-color="#309886" result="color"/>
      <feComposite operator="out" in="SourceGraphic" in2="blur"/>
      <feComposite operator="in" in="color"/>
      <feComposite operator="in" in2="SourceGraphic"/>
    </filter>
  </defs>
  <g id="icon-javascript" transform="translate(-772 -3525)">
    <g data-type="innerShadowGroup">
      <g transform="matrix(1, 0, 0, 1, 772, 3525)" filter="url(#Ellipse_14)">
        <circle id="Ellipse_14-2" data-name="Ellipse 14" cx="63" cy="63" r="63" fill="#fff"/>
      </g>
      <g id="Ellipse_14-3" data-name="Ellipse 14" transform="translate(772 3525)" fill="none" stroke="#2ee6c6" stroke-width="5">
        <circle cx="63" cy="63" r="63" stroke="none"/>
        <circle cx="63" cy="63" r="60.5" fill="none"/>
      </g>
    </g>
    <g id="Icon_ionic-logo-javascript" data-name="Icon ionic-logo-javascript" transform="translate(838.425 3568.995)">
      <path id="Path_11" data-name="Path 11" d="M-7.995,2.813h-7.616v20.23c0,5.006-1.717,6.4-4.7,6.4a11.38,11.38,0,0,1-3.641-.577l-.794,5.922a18.057,18.057,0,0,0,5.227.771c6.859,0,11.528-3.225,11.528-12.469V2.813Z" transform="translate(0 0.199)" fill="#e6e6e6"/>
      <path id="Path_12" data-name="Path 12" d="M3.039,2.25C-4.333,2.25-9,6.439-9,11.975c0,4.768,3.594,7.753,8.82,9.679C3.6,23,5.093,24.206,5.093,26.18c0,2.166-1.727,3.563-4.993,3.563a16.512,16.512,0,0,1-7.654-2.023v0L-9,33.736A18.879,18.879,0,0,0-.321,35.759c8.633,0,12.646-4.622,12.646-10.063,0-4.622-2.566-7.607-8.119-9.726C.1,14.334-1.626,13.42-1.626,11.349c0-1.637,1.494-3.129,4.574-3.129A13.171,13.171,0,0,1,9.279,9.866L11.1,3.773A19.611,19.611,0,0,0,3.039,2.25Z" transform="translate(5.575)" fill="#e6e6e6"/>
    </g>
  </g>
</svg>
