<svg xmlns="http://www.w3.org/2000/svg" xmlns:xlink="http://www.w3.org/1999/xlink" width="126" height="126" viewBox="0 0 126 126">
  <defs>
    <filter id="Ellipse_19">
      <feOffset input="SourceAlpha"/>
      <feGaussianBlur stdDeviation="18" result="blur"/>
      <feFlood flood-color="#309886" result="color"/>
      <feComposite operator="out" in="SourceGraphic" in2="blur"/>
      <feComposite operator="in" in="color"/>
      <feComposite operator="in" in2="SourceGraphic"/>
    </filter>
  </defs>
  <g id="icon-gamedesign" transform="translate(-1086 -210)">
    <path id="icon-gamepad" d="M37.467,6.927c-2.147,0-6.317,3.033-9.856,3.033S19.65,6.927,17.755,6.927c-13.015,0-20.471,35-10.74,35,8.214,0,9.319-10.235,20.565-10.235,9.1,0,14.437,10.111,20.5,10.111,9.729,0,2.4-34.876-10.614-34.876ZM17,26.64a6.824,6.824,0,1,1,6.824-6.823A6.825,6.825,0,0,1,17,26.64Zm18.1-3.791a1.516,1.516,0,1,1,1.516-1.516A1.515,1.515,0,0,1,35.1,22.849ZM39.742,27.4a1.516,1.516,0,1,1,1.516-1.516A1.515,1.515,0,0,1,39.742,27.4Zm0-9.1a1.516,1.516,0,1,1,1.516-1.516A1.515,1.515,0,0,1,39.742,18.3Zm4.549,4.549a1.516,1.516,0,1,1,1.516-1.516A1.515,1.515,0,0,1,44.291,22.849ZM17,16.025a3.791,3.791,0,1,0,3.791,3.791A3.791,3.791,0,0,0,17,16.025Z" transform="translate(1121.437 248.573)" fill="#fff"/>
    <g data-type="innerShadowGroup">
      <g transform="matrix(1, 0, 0, 1, 1086, 210)" filter="url(#Ellipse_19)">
        <circle id="Ellipse_19-2" data-name="Ellipse 19" cx="63" cy="63" r="63" fill="#fff"/>
      </g>
      <g id="Ellipse_19-3" data-name="Ellipse 19" transform="translate(1086 210)" fill="none" stroke="#2ee6c6" stroke-width="5">
        <circle cx="63" cy="63" r="63" stroke="none"/>
        <circle cx="63" cy="63" r="60.5" fill="none"/>
      </g>
    </g>
  </g>
</svg>
