<svg xmlns="http://www.w3.org/2000/svg" width="47.108" height="50.272" viewBox="0 0 47.108 50.272"><path d="M18.719,41.941C7.491,45.309,7.491,36.327,3,35.2M34.438,48.677v-8.69a7.568,7.568,0,0,0-2.111-5.861c7.051-.786,14.462-3.458,14.462-15.719a12.215,12.215,0,0,0-3.367-8.419,11.385,11.385,0,0,0-.2-8.467s-2.65-.786-8.78,3.323a30.046,30.046,0,0,0-15.719,0C12.589.734,9.939,1.52,9.939,1.52a11.385,11.385,0,0,0-.2,8.466,12.216,12.216,0,0,0-3.368,8.488c0,12.171,7.41,14.843,14.462,15.719a7.568,7.568,0,0,0-2.111,5.794v8.69" transform="translate(-1.181 0.095)" fill="none" stroke="#585858" stroke-linecap="round" stroke-linejoin="round" stroke-width="3"/></svg>