<svg xmlns="http://www.w3.org/2000/svg" xmlns:xlink="http://www.w3.org/1999/xlink" width="126" height="126" viewBox="0 0 126 126">
  <defs>
    <filter id="Ellipse_21">
      <feOffset input="SourceAlpha"/>
      <feGaussianBlur stdDeviation="18" result="blur"/>
      <feFlood flood-color="#309886" result="color"/>
      <feComposite operator="out" in="SourceGraphic" in2="blur"/>
      <feComposite operator="in" in="color"/>
      <feComposite operator="in" in2="SourceGraphic"/>
    </filter>
  </defs>
  <g id="icon-research" transform="translate(-1264 -58)">
    <path id="icon-magnifying-glass" d="M18.21.007a18.21,18.21,0,0,0,0,36.42,18,18,0,0,0,8.637-2.133,5.2,5.2,0,0,0,.676.676l5.2,5.2a5.307,5.307,0,1,0,7.492-7.492l-5.2-5.2a5.2,5.2,0,0,0-.832-.676,17.965,17.965,0,0,0,2.289-8.637A18.23,18.23,0,0,0,18.262-.045Zm0,5.2A12.946,12.946,0,0,1,31.217,18.217a13.047,13.047,0,0,1-3.434,8.949l-.156.156a5.2,5.2,0,0,0-.676.676,13.019,13.019,0,0,1-8.793,3.278,13.007,13.007,0,0,1,0-26.014Z" transform="translate(1306 100.402)" fill="#fff"/>
    <g data-type="innerShadowGroup">
      <g transform="matrix(1, 0, 0, 1, 1264, 58)" filter="url(#Ellipse_21)">
        <circle id="Ellipse_21-2" data-name="Ellipse 21" cx="63" cy="63" r="63" fill="#fff"/>
      </g>
      <g id="Ellipse_21-3" data-name="Ellipse 21" transform="translate(1264 58)" fill="none" stroke="#2ee6c6" stroke-width="5">
        <circle cx="63" cy="63" r="63" stroke="none"/>
        <circle cx="63" cy="63" r="60.5" fill="none"/>
      </g>
    </g>
  </g>
</svg>
