<svg xmlns="http://www.w3.org/2000/svg" width="47.131" height="44.924" viewBox="0 0 47.131 44.924"><g transform="translate(-1.5 -1.5)"><path d="M28.239,12A13.239,13.239,0,0,1,41.478,25.239V40.685H32.652V25.239a4.413,4.413,0,0,0-8.826,0V40.685H15V25.239A13.239,13.239,0,0,1,28.239,12Z" transform="translate(5.652 4.239)" fill="none" stroke="#585858" stroke-linecap="round" stroke-linejoin="round" stroke-width="3"/><path d="M3,13.5h8.826V39.978H3Z" transform="translate(0 4.946)" fill="none" stroke="#585858" stroke-linecap="round" stroke-linejoin="round" stroke-width="3"/><path d="M11.826,7.413A4.413,4.413,0,1,1,7.413,3,4.413,4.413,0,0,1,11.826,7.413Z" transform="translate(0 0)" fill="none" stroke="#585858" stroke-linecap="round" stroke-linejoin="round" stroke-width="3"/></g></svg>