<svg xmlns="http://www.w3.org/2000/svg" xmlns:xlink="http://www.w3.org/1999/xlink" width="126" height="126" viewBox="0 0 126 126">
  <defs>
    <filter id="Ellipse_19">
      <feOffset input="SourceAlpha"/>
      <feGaussianBlur stdDeviation="18" result="blur"/>
      <feFlood flood-color="#309886" result="color"/>
      <feComposite operator="out" in="SourceGraphic" in2="blur"/>
      <feComposite operator="in" in="color"/>
      <feComposite operator="in" in2="SourceGraphic"/>
    </filter>
  </defs>
  <g id="icon-photoshop" transform="translate(-364 -2925)">
    <g data-type="innerShadowGroup">
      <circle id="Ellipse_19-2" data-name="Ellipse 19" cx="63" cy="63" r="63" transform="translate(364 2925)" fill="#585858"/>
      <g transform="matrix(1, 0, 0, 1, 364, 2925)" filter="url(#Ellipse_19)">
        <circle id="Ellipse_19-3" data-name="Ellipse 19" cx="63" cy="63" r="63" fill="#fff"/>
      </g>
      <g id="Ellipse_19-4" data-name="Ellipse 19" transform="translate(364 2925)" fill="none" stroke="#2ee6c6" stroke-width="5">
        <circle cx="63" cy="63" r="63" stroke="none"/>
        <circle cx="63" cy="63" r="60.5" fill="none"/>
      </g>
    </g>
    <path id="Icon_simple-adobephotoshop" data-name="Icon simple-adobephotoshop" d="M0,.45V41.4H42V.45ZM1.75,2.2h38.5V39.65H1.75Zm8.4,7.84c0-.117.245-.2.392-.2,1.127-.058,2.779-.087,4.511-.087,4.851,0,6.737,2.66,6.737,6.066,0,4.445-3.223,6.352-7.178,6.352-.665,0-.893-.03-1.356-.03v6.723c0,.145-.058.2-.2.2h-2.7c-.145,0-.2-.052-.2-.2V10.04Zm3.106,9.3c.4.028.721.028,1.418.028,2.047,0,3.972-.721,3.972-3.493,0-2.222-1.375-3.35-3.713-3.35-.693,0-1.356.028-1.675.058v6.762Zm15.062-2.079c-1.386,0-1.848.693-1.848,1.271,0,.635.315,1.067,2.165,2.021,2.744,1.33,3.609,2.6,3.609,4.475,0,2.8-2.135,4.305-5.023,4.305a7.646,7.646,0,0,1-3.587-.753c-.114-.058-.14-.143-.14-.289V25.72c0-.175.084-.233.2-.147a6.447,6.447,0,0,0,3.521,1.04c1.386,0,1.964-.578,1.964-1.358,0-.635-.4-1.185-2.165-2.109-2.485-1.19-3.524-2.4-3.524-4.422,0-2.252,1.76-4.13,4.821-4.13a8.157,8.157,0,0,1,3.139.49.382.382,0,0,1,.175.346v2.4c0,.145-.087.233-.263.175a6.267,6.267,0,0,0-3.05-.753Z" transform="translate(406 2967.075)" fill="#fff"/>
  </g>
</svg>
