<svg xmlns="http://www.w3.org/2000/svg" xmlns:xlink="http://www.w3.org/1999/xlink" width="126" height="126" viewBox="0 0 126 126">
  <defs>
    <filter id="Ellipse_15">
      <feOffset input="SourceAlpha"/>
      <feGaussianBlur stdDeviation="18" result="blur"/>
      <feFlood flood-color="#309886" result="color"/>
      <feComposite operator="out" in="SourceGraphic" in2="blur"/>
      <feComposite operator="in" in="color"/>
      <feComposite operator="in" in2="SourceGraphic"/>
    </filter>
  </defs>
  <g id="icon-java-processing" transform="translate(-1180 -3525)">
    <g data-type="innerShadowGroup">
      <g transform="matrix(1, 0, 0, 1, 1180, 3525)" filter="url(#Ellipse_15)">
        <circle id="Ellipse_15-2" data-name="Ellipse 15" cx="63" cy="63" r="63" fill="#fff"/>
      </g>
      <g id="Ellipse_15-3" data-name="Ellipse 15" transform="translate(1180 3525)" fill="none" stroke="#2ee6c6" stroke-width="5">
        <circle cx="63" cy="63" r="63" stroke="none"/>
        <circle cx="63" cy="63" r="60.5" fill="none"/>
      </g>
    </g>
    <path id="Icon_awesome-java" data-name="Icon awesome-java" d="M30.781,34.814a17.986,17.986,0,0,1,2.6-1.391s-4.306.779-8.589,1.135a78.25,78.25,0,0,1-13.7.145c-6.687-.89,3.672-3.349,3.672-3.349A19.706,19.706,0,0,0,5.8,33.468C-.039,36.294,20.267,37.585,30.781,34.814Zm-9.5-3.572c-2.114-4.751-9.246-8.923,0-16.222C32.813,5.919,26.9,0,26.9,0c2.392,9.4-8.411,12.25-12.317,18.091C11.922,22.086,15.883,26.369,21.279,31.243Zm12.751-19.6c.011,0-19.493,4.873-10.181,15.6,2.748,3.16-.723,6.008-.723,6.008s6.976-3.6,3.772-8.111c-2.993-4.206-5.285-6.3,7.132-13.5Zm-.679,30.1a1.356,1.356,0,0,1-.223.289c14.275-3.75,9.023-13.229,2.2-10.826a1.928,1.928,0,0,0-.912.7,7.839,7.839,0,0,1,1.224-.334c3.449-.723,8.4,4.617-2.292,10.169ZM38.6,48.666s1.613,1.324-1.769,2.359c-6.442,1.947-26.792,2.537-32.444.078-2.036-.879,1.78-2.114,2.982-2.37a8.072,8.072,0,0,1,1.969-.223C7.078,46.92-5.273,51.637,3.061,52.983,25.785,56.677,44.5,51.326,38.6,48.666ZM13.725,44.06c-8.756,2.448,5.329,7.5,16.478,2.726a20.683,20.683,0,0,1-3.138-1.535,32.561,32.561,0,0,1-11.794.5c-3.727-.423-1.547-1.691-1.547-1.691ZM33.73,54.875a84.335,84.335,0,0,1-25.958.4c0-.011,1.313,1.079,8.055,1.513,10.258.656,26.013-.367,26.38-5.218,0,0-.712,1.836-8.478,3.3Zm-4.851-15.6a45.963,45.963,0,0,1-15.221.734c-3.727-.389-1.291-2.192-1.291-2.192-9.658,3.2,5.363,6.832,18.859,2.882a6.717,6.717,0,0,1-2.348-1.424Z" transform="translate(1221.792 3559.516)" fill="#fff"/>
  </g>
</svg>
