<svg xmlns="http://www.w3.org/2000/svg" xmlns:xlink="http://www.w3.org/1999/xlink" width="126" height="126" viewBox="0 0 126 126">
  <defs>
    <filter id="Ellipse_12">
      <feOffset input="SourceAlpha"/>
      <feGaussianBlur stdDeviation="18" result="blur"/>
      <feFlood flood-color="#309886" result="color"/>
      <feComposite operator="out" in="SourceGraphic" in2="blur"/>
      <feComposite operator="in" in="color"/>
      <feComposite operator="in" in2="SourceGraphic"/>
    </filter>
  </defs>
  <g id="icon-illustrator" transform="translate(-772 -2759)">
    <g data-type="innerShadowGroup">
      <circle id="Ellipse_12-2" data-name="Ellipse 12" cx="63" cy="63" r="63" transform="translate(772 2759)" fill="#585858"/>
      <g transform="matrix(1, 0, 0, 1, 772, 2759)" filter="url(#Ellipse_12)">
        <circle id="Ellipse_12-3" data-name="Ellipse 12" cx="63" cy="63" r="63" fill="#fff"/>
      </g>
      <g id="Ellipse_12-4" data-name="Ellipse 12" transform="translate(772 2759)" fill="none" stroke="#2ee6c6" stroke-width="5">
        <circle cx="63" cy="63" r="63" stroke="none"/>
        <circle cx="63" cy="63" r="60.5" fill="none"/>
      </g>
    </g>
    <path id="Icon_simple-adobeillustrator" data-name="Icon simple-adobeillustrator" d="M0,.45V41.4H42V.45ZM1.75,2.2h38.5V39.65H1.75ZM14.569,23.637l-1.386,5.247c-.03.145-.087.178-.259.178H10.355c-.175,0-.2-.058-.175-.259l4.97-17.4a5.4,5.4,0,0,0,.172-1.458c0-.116.058-.175.145-.175h3.668c.116,0,.175.031.2.175l5.574,18.889c.03.145,0,.231-.145.231H21.878c-.145,0-.231-.035-.259-.15l-1.444-5.276H14.563Zm4.879-2.844c-.49-1.935-1.645-6.174-2.079-8.225h-.03c-.375,2.047-1.3,5.512-2.021,8.225Zm7.875-9.726a1.79,1.79,0,1,1,3.58,0,1.677,1.677,0,0,1-1.82,1.79,1.645,1.645,0,0,1-1.767-1.79Zm.2,3.979c0-.14.058-.193.2-.193h2.747c.154,0,.21.058.21.2V28.873c0,.145-.028.2-.2.2H27.765c-.175,0-.233-.088-.233-.228v-13.8Z" transform="translate(814 2801.075)" fill="#e6e6e6"/>
  </g>
</svg>
