<svg xmlns="http://www.w3.org/2000/svg" width="43.155" height="43.155" viewBox="0 0 43.155 43.155">
  <g id="Icon_feather-instagram" data-name="Icon feather-instagram" transform="translate(-1.5 -1.5)">
    <path id="Path_17" data-name="Path 17" d="M13.039,3H33.117A10.039,10.039,0,0,1,43.155,13.039V33.117A10.039,10.039,0,0,1,33.117,43.155H13.039A10.039,10.039,0,0,1,3,33.117V13.039A10.039,10.039,0,0,1,13.039,3Z" transform="translate(0 0)" fill="none" stroke="#283618" stroke-linecap="round" stroke-linejoin="round" stroke-width="3"/>
    <path id="Path_18" data-name="Path 18" d="M28.04,19.528a8.031,8.031,0,1,1-6.766-6.766,8.031,8.031,0,0,1,6.766,6.766ZM31.052,9.75h.02" transform="translate(3.069 2.285)" fill="none" stroke="#283618" stroke-linecap="round" stroke-linejoin="round" stroke-width="3"/>
  </g>
</svg>
