<svg xmlns="http://www.w3.org/2000/svg" xmlns:xlink="http://www.w3.org/1999/xlink" width="126" height="126" viewBox="0 0 126 126">
  <defs>
    <filter id="Ellipse_8">
      <feOffset input="SourceAlpha"/>
      <feGaussianBlur stdDeviation="18" result="blur"/>
      <feFlood flood-color="#309886" result="color"/>
      <feComposite operator="out" in="SourceGraphic" in2="blur"/>
      <feComposite operator="in" in="color"/>
      <feComposite operator="in" in2="SourceGraphic"/>
    </filter>
  </defs>
  <g id="icon-visual-studio-code" transform="translate(-772 -2593)">
    <g data-type="innerShadowGroup">
      <g transform="matrix(1, 0, 0, 1, 772, 2593)" filter="url(#Ellipse_8)">
        <circle id="Ellipse_8-2" data-name="Ellipse 8" cx="63" cy="63" r="63" fill="#fff"/>
      </g>
      <g id="Ellipse_8-3" data-name="Ellipse 8" transform="translate(772 2593)" fill="none" stroke="#2ee6c6" stroke-width="5">
        <circle cx="63" cy="63" r="63" stroke="none"/>
        <circle cx="63" cy="63" r="60.5" fill="none"/>
      </g>
    </g>
    <path id="Icon_simple-visualstudiocode" data-name="Icon simple-visualstudiocode" d="M40.512,4.512,31.867.352a2.614,2.614,0,0,0-2.984.507l-16.555,15.1-7.21-5.474a1.748,1.748,0,0,0-2.233.1l-2.313,2.1a1.75,1.75,0,0,0,0,2.588l6.253,5.7-6.253,5.7a1.75,1.75,0,0,0,0,2.588l2.315,2.1a1.748,1.748,0,0,0,2.233.1L12.33,26l16.555,15.1a2.611,2.611,0,0,0,2.982.507l8.648-4.16A2.625,2.625,0,0,0,42,35.089V6.878a2.625,2.625,0,0,0-1.488-2.366ZM31.507,30.518,18.945,20.984,31.507,11.45V30.518Z" transform="translate(814 2635.017)" fill="#e6e6e6"/>
  </g>
</svg>
