<svg xmlns="http://www.w3.org/2000/svg" width="47.912" height="47.912" viewBox="0 0 47.912 47.912">
  <g id="icon-instagram-light" transform="translate(1.5 1.5)">
    <path id="Path_2" data-name="Path 2" d="M14.228,3H36.684A11.228,11.228,0,0,1,47.912,14.228V36.684A11.228,11.228,0,0,1,36.684,47.912H14.228A11.228,11.228,0,0,1,3,36.684V14.228A11.228,11.228,0,0,1,14.228,3Z" transform="translate(-3 -3)" fill="none" stroke="#fff" stroke-linecap="round" stroke-linejoin="round" stroke-width="3"/>
    <path id="Path_3" data-name="Path 3" d="M29.933,19.6a8.982,8.982,0,1,1-7.568-7.568A8.982,8.982,0,0,1,29.933,19.6Z" transform="translate(1.506 1.441)" fill="none" stroke="#fff" stroke-linecap="round" stroke-linejoin="round" stroke-width="3"/>
    <path id="Path_4" data-name="Path 4" d="M26.25,9.75h0" transform="translate(8.557 0.355)" fill="none" stroke="#fff" stroke-linecap="round" stroke-linejoin="round" stroke-width="3"/>
  </g>
</svg>
