<svg xmlns="http://www.w3.org/2000/svg" xmlns:xlink="http://www.w3.org/1999/xlink" width="126" height="126" viewBox="0 0 126 126">
  <defs>
    <filter id="Ellipse_9">
      <feOffset input="SourceAlpha"/>
      <feGaussianBlur stdDeviation="18" result="blur"/>
      <feFlood flood-color="#309886" result="color"/>
      <feComposite operator="out" in="SourceGraphic" in2="blur"/>
      <feComposite operator="in" in="color"/>
      <feComposite operator="in" in2="SourceGraphic"/>
    </filter>
  </defs>
  <g id="icon-premiere" transform="translate(-1180 -2593)">
    <g data-type="innerShadowGroup">
      <circle id="Ellipse_9-2" data-name="Ellipse 9" cx="63" cy="63" r="63" transform="translate(1180 2593)" fill="#585858"/>
      <g transform="matrix(1, 0, 0, 1, 1180, 2593)" filter="url(#Ellipse_9)">
        <circle id="Ellipse_9-3" data-name="Ellipse 9" cx="63" cy="63" r="63" fill="#fff"/>
      </g>
      <g id="Ellipse_9-4" data-name="Ellipse 9" transform="translate(1180 2593)" fill="none" stroke="#2ee6c6" stroke-width="5">
        <circle cx="63" cy="63" r="63" stroke="none"/>
        <circle cx="63" cy="63" r="60.5" fill="none"/>
      </g>
    </g>
    <path id="Icon_simple-adobepremiere" data-name="Icon simple-adobepremiere" d="M0,.45V41.993H42.609V.45ZM1.775,2.225H40.833V40.218H1.775Zm9.4,7.95c0-.117.03-.206.178-.206,1.142-.059,2.81-.089,4.568-.089,4.921,0,7.061,2.7,7.061,6.153,0,4.509-3.265,6.445-7.277,6.445-.675,0-.909-.03-1.378-.03v6.823c0,.147-.059.206-.2.206H11.385c-.147,0-.206-.059-.206-.206Zm3.151,9.432c.41.028.733.028,1.436.028,2.079,0,4.025-.731,4.025-3.544,0-2.255-1.388-3.4-3.762-3.4-.7,0-1.376.028-1.7.059ZM25.693,18c0-.2,0-.731-.087-1.727,0-.147.02-.178.137-.234a18.5,18.5,0,0,1,6.492-1.23c.146,0,.2.028.2.176v2.578c0,.146-.046.176-.194.176a10.164,10.164,0,0,0-3.355.352V29.271c0,.147-.06.206-.206.206H25.9c-.146,0-.2-.059-.2-.206Z" transform="translate(1222 2634.55)" fill="#e6e6e6"/>
  </g>
</svg>
